name C:\Users\u0101727\Documents\MyRepositories\upper-imu-dc\Results\main_tracking\Case_14\ABD01_linearAccelerations_bodyFrame.mot
datacolumns 4
datarows 105
range 8.06000000 9.10000000
endheader 
time	radius_imu_x	radius_imu_y	radius_imu_z	
          8.06000000	         -4.35024213	         -1.73576389	          9.55347892	
          8.07000000	         -4.38919230	         -1.66854573	          9.59518908	
          8.08000000	         -4.36588074	         -1.60550621	          9.63316988	
          8.09000000	         -4.29381289	         -1.53861150	          9.66715562	
          8.10000000	         -4.19191123	         -1.46190395	          9.69692475	
          8.11000000	         -4.08231793	         -1.37274734	          9.72206911	
          8.12000000	         -3.98725847	         -1.27163811	          9.74123652	
          8.13000000	         -3.92450814	         -1.16104301	          9.75195406	
          8.14000000	         -3.90212581	         -1.04407992	          9.75160894	
          8.15000000	         -3.91439417	         -0.92359735	          9.73891664	
          8.16000000	         -3.94081151	         -0.80148389	          9.71479921	
          8.17000000	         -3.94812173	         -0.67848403	          9.68219786	
          8.18000000	         -3.89411023	         -0.55409442	          9.64573875	
          8.19000000	         -3.73273307	         -0.42674347	          9.61150978	
          8.20000000	         -3.42131620	         -0.29409730	          9.58701986	
          8.21000000	         -2.93051322	         -0.15367915	          9.58075422	
          8.22000000	         -2.25658428	         -0.00406817	          9.60054769	
          8.23000000	         -1.43264169	          0.15318493	          9.65004202	
          8.24000000	         -0.53331634	          0.31186500	          9.72400469	
          8.25000000	          0.33454574	          0.46125810	          9.80582500	
          8.26000000	          1.05811908	          0.58901681	          9.87105911	
          8.27000000	          1.55047864	          0.68581060	          9.89633176	
          8.28000000	          1.76911551	          0.74957600	          9.86766924	
          8.29000000	          1.71508806	          0.78712834	          9.78371167	
          8.30000000	          1.42225565	          0.81204163	          9.65423387	
          8.31000000	          0.94658718	          0.83979117	          9.49614230	
          8.32000000	          0.35890943	          0.88305391	          9.32815151	
          8.33000000	         -0.26014261	          0.94982637	          9.16520558	
          8.34000000	         -0.82551709	          1.04432389	          9.01472543	
          8.35000000	         -1.25479833	          1.16839208	          8.87681793	
          8.36000000	         -1.47692173	          1.32184905	          8.74857529	
          8.37000000	         -1.44267488	          1.50207624	          8.63001528	
          8.38000000	         -1.13676451	          1.70375745	          8.52794525	
          8.39000000	         -0.58879718	          1.91913842	          8.45467898	
          8.40000000	          0.12256298	          2.13882323	          8.42115896	
          8.41000000	          0.88021198	          2.35328223	          8.42843712	
          8.42000000	          1.55778263	          2.55511574	          8.46443278	
          8.43000000	          2.05551771	          2.74094170	          8.50929087	
          8.44000000	          2.32174403	          2.91132333	          8.54516044	
          8.45000000	          2.35332762	          3.06921154	          8.56378383	
          8.46000000	          2.18510556	          3.21901704	          8.56854943	
          8.47000000	          1.87623839	          3.36667669	          8.57103762	
          8.48000000	          1.49466767	          3.51912817	          8.58437884	
          8.49000000	          1.10203031	          3.68248038	          8.61714880	
          8.50000000	          0.74323547	          3.85973286	          8.67065822	
          8.51000000	          0.44249613	          4.04918258	          8.73985901	
          8.52000000	          0.20457180	          4.24423237	          8.81631575	
          8.53000000	          0.01921766	          4.43501599	          8.89086995	
          8.54000000	         -0.13280300	          4.61106751	          8.95573385	
          8.55000000	         -0.27281248	          4.76457851	          9.00498858	
          8.56000000	         -0.41656767	          4.89287930	          9.03500356	
          8.57000000	         -0.56847734	          4.99929638	          9.04446790	
          8.58000000	         -0.72013222	          5.09202843	          9.03408933	
          8.59000000	         -0.85397852	          5.18125337	          9.00595361	
          8.60000000	         -0.95014716	          5.27560239	          8.96280967	
          8.61000000	         -0.99265703	          5.37964265	          8.90766349	
          8.62000000	         -0.97177379	          5.49402468	          8.84370964	
          8.63000000	         -0.88302251	          5.61809934	          8.77428693	
          8.64000000	         -0.72685278	          5.75254264	          8.70238840	
          8.65000000	         -0.51188704	          5.89936681	          8.62973190	
          8.66000000	         -0.25982850	          6.05896485	          8.55610183	
          8.67000000	         -0.00594170	          6.22651317	          8.47996946	
          8.68000000	          0.20949147	          6.39101505	          8.40069772	
          8.69000000	          0.35482816	          6.53834820	          8.32088727	
          8.70000000	          0.41657761	          6.65663210	          8.24671351	
          8.71000000	          0.40048586	          6.74106713	          8.18581518	
          8.72000000	          0.32632664	          6.79615780	          8.14415304	
          8.73000000	          0.22018999	          6.83439337	          8.12357605	
          8.74000000	          0.10742845	          6.87204397	          8.12108099	
          8.75000000	          0.00753706	          6.92374465	          8.12974656	
          8.76000000	         -0.06950267	          6.99742994	          8.14059828	
          8.77000000	         -0.12562324	          7.09086573	          8.14448275	
          8.78000000	         -0.17406641	          7.19172146	          8.13323661	
          8.79000000	         -0.23440246	          7.28211361	          8.10003074	
          8.80000000	         -0.32372932	          7.34694923	          8.03913878	
          8.81000000	         -0.44801373	          7.38233303	          7.94562679	
          8.82000000	         -0.59849493	          7.39919547	          7.81550077	
          8.83000000	         -0.75529531	          7.41969665	          7.64662537	
          8.84000000	         -0.89601127	          7.46819068	          7.44026081	
          8.85000000	         -1.00422091	          7.56167371	          7.20256244	
          8.86000000	         -1.07361132	          7.70394367	          6.94531094	
          8.87000000	         -1.10740914	          7.88575372	          6.68477657	
          8.88000000	         -1.11530609	          8.08853483	          6.43901626	
          8.89000000	         -1.11057733	          8.28908733	          6.22432660	
          8.90000000	         -1.10737136	          8.46475566	          6.05190546	
          8.91000000	         -1.11745702	          8.59871953	          5.92577598	
          8.92000000	         -1.14668508	          8.68448163	          5.84242502	
          8.93000000	         -1.19250517	          8.72782048	          5.79219107	
          8.94000000	         -1.24414287	          8.74482883	          5.76199586	
          8.95000000	         -1.28596727	          8.75621951	          5.73865316	
          8.96000000	         -1.30281235	          8.77991755	          5.71184572	
          8.97000000	         -1.28501282	          8.82483468	          5.67597139	
          8.98000000	         -1.23102515	          8.88843960	          5.63044515	
          8.99000000	         -1.14651901	          8.95935221	          5.57859231	
          9.00000000	         -1.04076818	          9.02372245	          5.52564253	
          9.01000000	         -0.92280504	          9.07195782	          5.47644786	
          9.02000000	         -0.79934710	          9.10242349	          5.43363883	
          9.03000000	         -0.67467935	          9.12087500	          5.39686873	
          9.04000000	         -0.55143060	          9.13677671	          5.36332469	
          9.05000000	         -0.43110858	          9.15889561	          5.32910491	
          9.06000000	         -0.31398942	          9.19225155	          5.29080172	
          9.07000000	         -0.19888316	          9.23721249	          5.24674426	
          9.08000000	         -0.08381579	          9.29018405	          5.19756468	
          9.09000000	          0.03192252	          9.34502406	          5.14591069	
          9.10000000	          0.14538624	          9.39506979	          5.09537644	
